<?xml version="1.0" standalone="no"?>
<!DOCTYPE svg PUBLIC "-//W3C//DTD SVG 20010904//EN"
 "http://www.w3.org/TR/2001/REC-SVG-20010904/DTD/svg10.dtd">
<svg version="1.0" xmlns="http://www.w3.org/2000/svg"
 width="225.000000pt" height="225.000000pt" viewBox="0 0 225.000000 225.000000"
 preserveAspectRatio="xMidYMid meet">
<metadata>
Created by potrace 1.11, written by Peter Selinger 2001-2013
</metadata>
<g transform="translate(0.000000,225.000000) scale(0.100000,-0.100000)"
fill="#000000" stroke="none">
<path d="M1164 2022 l-62 -3 -6 -51 c-4 -28 -3 -54 1 -58 4 -5 35 -11 69 -15
l61 -7 7 32 c8 44 8 98 -1 102 -5 2 -36 2 -69 0z"/>
<path d="M488 2003 c7 -3 16 -2 19 1 4 3 -2 6 -13 5 -11 0 -14 -3 -6 -6z"/>
<path d="M1050 880 c0 -6 -78 -10 -213 -10 -118 0 -309 -3 -425 -7 l-212 -6 0
-74 0 -75 143 6 c78 3 269 8 425 12 232 5 282 3 282 -8 0 -10 3 -9 10 2 13 20
13 170 0 170 -5 0 -10 -4 -10 -10z"/>
<path d="M1082 800 l-3 -70 73 0 c319 -2 762 -20 891 -36 l47 -7 0 76 0 75
-57 6 c-84 9 -590 26 -783 26 l-165 0 -3 -70z"/>
<path d="M1032 559 c-12 -5 -205 -12 -427 -15 l-405 -7 0 -75 0 -75 156 7 c86
3 281 9 433 12 152 4 276 7 276 8 0 0 -2 35 -5 77 -5 75 -6 76 -28 68z"/>
<path d="M1080 516 c0 -24 3 -57 6 -73 l6 -30 281 -6 c155 -3 293 -8 306 -11
14 -3 110 -9 213 -12 l188 -7 0 25 c0 14 3 45 6 70 l6 44 -243 13 c-134 7
-325 16 -424 22 -99 5 -217 9 -262 9 l-83 0 0 -44z"/>
<path d="M1131 217 c2 -1 15 -11 29 -22 l25 -20 -19 23 c-11 12 -24 22 -29 22
-6 0 -8 -1 -6 -3z"/>
</g>
</svg>
