<?xml version="1.0" standalone="no"?>
<!DOCTYPE svg PUBLIC "-//W3C//DTD SVG 20010904//EN"
 "http://www.w3.org/TR/2001/REC-SVG-20010904/DTD/svg10.dtd">
<svg version="1.0" xmlns="http://www.w3.org/2000/svg"
 width="225.000000pt" height="225.000000pt" viewBox="0 0 225.000000 225.000000"
 preserveAspectRatio="xMidYMid meet">
<metadata>
Created by potrace 1.11, written by Peter Selinger 2001-2013
</metadata>
<g transform="translate(0.000000,225.000000) scale(0.100000,-0.100000)"
fill="#000000" stroke="none">
<path d="M880 2105 c-14 -8 -50 -19 -80 -25 -30 -7 -86 -21 -125 -32 -38 -11
-83 -22 -100 -24 -16 -3 -45 -7 -64 -10 l-34 -5 7 -322 c5 -233 4 -336 -4
-372 -7 -27 -13 -55 -14 -61 -1 -7 -8 -19 -15 -28 -7 -9 -10 -16 -7 -16 9 0
-29 -56 -63 -93 -30 -33 -130 -87 -161 -87 -20 0 -20 -5 -20 -457 l0 -458 58
-4 c31 -3 98 -4 147 -4 383 5 706 11 740 13 22 2 74 -1 115 -7 57 -7 722 -11
810 -4 13 1 15 50 16 369 1 202 5 405 9 451 l7 84 -25 -7 c-35 -8 -111 35
-174 99 -82 85 -87 110 -78 444 7 306 11 387 20 401 3 5 0 12 -6 16 -8 4 -7 9
2 15 10 6 4 9 -18 9 -18 0 -34 0 -35 -1 -2 0 -16 5 -33 11 -34 13 -41 15 -110
31 -27 6 -54 15 -60 19 -5 4 -36 15 -67 25 -32 10 -63 24 -69 31 -15 19 -34
18 -50 -3 -34 -40 -87 -52 -237 -52 -150 0 -179 6 -223 46 -29 27 -27 26 -59
8z"/>
</g>
</svg>
